<?xml version="1.0" encoding="UTF-8" standalone="no"?>
<svg
   xmlns:dc="http://purl.org/dc/elements/1.1/"
   xmlns:cc="http://creativecommons.org/ns#"
   xmlns:rdf="http://www.w3.org/1999/02/22-rdf-syntax-ns#"
   xmlns:svg="http://www.w3.org/2000/svg"
   xmlns="http://www.w3.org/2000/svg"
   xmlns:sodipodi="http://sodipodi.sourceforge.net/DTD/sodipodi-0.dtd"
   xmlns:inkscape="http://www.inkscape.org/namespaces/inkscape"
   height="24"
   viewBox="0 0 24 24"
   width="24"
   version="1.1"
   id="svg6"
   sodipodi:docname="stundenplan.svg"
   inkscape:version="0.92.4 (5da689c313, 2019-01-14)">
  <metadata
     id="metadata12">
    <rdf:RDF>
      <cc:Work
         rdf:about="">
        <dc:format>image/svg+xml</dc:format>
        <dc:type
           rdf:resource="http://purl.org/dc/dcmitype/StillImage" />
      </cc:Work>
    </rdf:RDF>
  </metadata>
  <defs
     id="defs10" />
  <sodipodi:namedview
     pagecolor="#ffffff"
     bordercolor="#666666"
     borderopacity="1"
     objecttolerance="10"
     gridtolerance="10"
     guidetolerance="10"
     inkscape:pageopacity="0"
     inkscape:pageshadow="2"
     inkscape:window-width="1920"
     inkscape:window-height="1137"
     id="namedview8"
     showgrid="false"
     inkscape:zoom="39.333333"
     inkscape:cx="12.439831"
     inkscape:cy="13.026856"
     inkscape:window-x="1912"
     inkscape:window-y="-8"
     inkscape:window-maximized="1"
     inkscape:current-layer="svg6" />
  <rect
     style="opacity:1;fill:#ffffff;fill-opacity:1;stroke:none;stroke-linejoin:round;stroke-opacity:1"
     id="rect814"
     width="17.059322"
     height="12.177966"
     x="3.4576271"
     y="9.025424" />
  <rect
     style="opacity:1;fill:#1af1bb;fill-opacity:1;stroke:none;stroke-linejoin:round;stroke-opacity:1"
     id="rect824"
     width="17.211864"
     height="4.6016951"
     x="3.381356"
     y="3.6864407" />
  <path
     d="M0 0h24v24H0z"
     fill="none"
     id="path2" />
  <path
     d="M 20,2 H 3.7966102 C 2.6966102,2 2,2.9 2,4 v 16 c 0,1.1 0.9,2 2,2 h 16 c 1.1,0 2,-0.9 2,-2 V 4 C 22,2.9 21.1,2 20,2 Z M 8,20 H 4 V 16 H 8 Z M 8,14 H 4 V 10 H 8 Z M 8,8 H 4 V 4 h 4 z m 6,12 h -4 v -4 h 4 z m 0,-6 h -4 v -4 h 4 z M 14,8 H 10 V 4 h 4 z m 6,12 h -4 v -4 h 4 z m 0,-6 h -4 v -4 h 4 z M 20,8 H 16 V 4 h 4 z"
     id="path4"
     inkscape:connector-curvature="0"
     sodipodi:nodetypes="sssssssssccccccccccccccccccccccccccccccccccccccccccccc"
     style="fill:#474747;fill-opacity:1" />
</svg>
